# xmcd
#
# Track frame offsets: 
#        150
#        17610
#        34993
#        47800
#        69787
#        89641
#        106388
#        121996
#        139625
#        157065
#        177268
#        196420
#        213161
#        231219
#        248575
#
# Disc length: 3522 seconds
#
# Revision: 0
# Processed by: cddbd v1.5.2PL0 Copyright (c) Steve Scherf et al.
# Submitted via: ExactAudioCopy v1.0b3
#
DISCID=ca0dc00f
DTITLE=Westlife - Greatest Hits (Deluxe Edition)
DYEAR=2005
DGENRE=
TTITLE0=My Love
TTITLE1=Mandy
TTITLE2=Amazing
TTITLE3=You Rises Me Up
TTITLE4=Lighthouse
TTITLE5=If I Let You Go
TTITLE6=Hey Whatever
TTITLE7=Fool Again
TTITLE8=What Makes a Man
TTITLE9=Bop Bop Baby
TTITLE10=I Have a Dream
TTITLE11=Wide Open
TTITLE12=Uptown Girl
TTITLE13=Last Mile of the Way
TTITLE14=World of Our Own
EXTD=
EXTT0=
EXTT1=
EXTT2=
EXTT3=
EXTT4=
EXTT5=
EXTT6=
EXTT7=
EXTT8=
EXTT9=
EXTT10=
EXTT11=
EXTT12=
EXTT13=
EXTT14=
PLAYORDER=
